<svg width="100" height="101" viewBox="0 0 100 101" fill="none" xmlns="http://www.w3.org/2000/svg">
<path d="M87.5 67.1666V33.8333C87.4985 32.3719 87.1127 30.9366 86.3814 29.6714C85.6501 28.4062 84.5989 27.3556 83.3333 26.6249L54.1667 9.95825C52.8998 9.22685 51.4628 8.8418 50 8.8418C48.5372 8.8418 47.1002 9.22685 45.8333 9.95825L16.6667 26.6249C15.4011 27.3556 14.3499 28.4062 13.6186 29.6714C12.8873 30.9366 12.5015 32.3719 12.5 33.8333V67.1666C12.5015 68.6279 12.8873 70.0632 13.6186 71.3284C14.3499 72.5936 15.4011 73.6442 16.6667 74.3749L45.8333 91.0416C47.1002 91.773 48.5372 92.158 50 92.158C51.4628 92.158 52.8998 91.773 54.1667 91.0416L83.3333 74.3749C84.5989 73.6442 85.6501 72.5936 86.3814 71.3284C87.1127 70.0632 87.4985 68.6279 87.5 67.1666Z" stroke="white" stroke-width="2" stroke-linecap="round" stroke-linejoin="round"/>
<path d="M13.625 29.5L50 50.5417L86.375 29.5" stroke="white" stroke-width="2" stroke-linecap="round" stroke-linejoin="round"/>
<path d="M50 92.5V50.5" stroke="white" stroke-width="2" stroke-linecap="round" stroke-linejoin="round"/>
</svg>
