<svg width="800" height="600" viewBox="0 0 800 600" fill="none" xmlns="http://www.w3.org/2000/svg">
<path d="M506.702 368.365C508.325 367.801 509.736 368.859 509.877 370.764C509.948 372.669 508.748 374.715 507.126 375.35C505.503 375.914 504.092 374.856 503.951 372.88C503.81 370.975 505.08 369 506.702 368.365Z" fill="black"/>
<path d="M472.061 357.429L472.344 363.356C471.426 362.933 469.945 363.074 468.534 363.497L463.454 365.19C463.454 365.966 463.736 371.963 463.877 372.739C465.571 372.104 466.276 371.893 467.475 371.399C468.251 371.117 469.733 370.129 470.086 369.494L470.439 376.479C469.874 376.267 469.028 375.773 467.617 376.196C466.488 376.479 465.782 376.761 464.089 377.325L464.512 384.945L470.439 382.899C472.202 382.052 473.402 380.853 473.896 380.288L474.178 386.567L457.598 392.564C458.021 391.577 458.515 389.883 458.374 387.132C458.374 387.132 457.81 373.374 457.316 366.813C457.175 365.261 456.752 363.779 456.117 363.074L472.061 357.429Z" fill="black"/>
<path d="M476.577 379.512C477.564 380.429 480.669 380.782 482.362 380.218C483.632 379.724 484.337 378.666 484.337 377.819C484.267 376.408 483.42 375.632 480.739 375.068C477.847 374.503 476.083 373.304 475.942 370.411C475.73 366.037 479.187 363.074 483.42 361.945C484.831 361.592 486.807 361.592 487.865 361.592L488.077 366.248C487.159 365.755 485.043 365.543 483.702 366.037C482.291 366.531 481.586 367.518 481.798 368.577C482.009 369.564 483.491 369.988 486.454 370.764C488.782 371.399 489.77 372.81 489.911 374.997C490.123 379.512 487.089 382.546 482.644 384.098C481.092 384.663 477.635 385.086 476.859 385.015L476.577 379.512Z" fill="black"/>
<path d="M497.883 353.479C497.883 354.748 497.813 354.537 497.954 357.147L499.153 356.653C500.635 356.018 501.623 355.242 501.623 355.242L501.764 359.828L498.095 361.098L498.659 371.117C498.801 373.304 500.141 373.868 501.693 373.515L501.834 376.549C500.705 377.396 499.294 378.242 498.095 378.666C496.543 379.23 495.273 379.018 494.215 378.031C493.439 377.255 493.086 375.632 492.945 373.586L492.38 363.215L489.841 364.061L493.368 355.454L497.883 353.479Z" fill="black"/>
<path d="M522.718 369.353L514.04 372.386C514.04 372.386 515.239 369.988 515.098 367.307L514.322 352.773C514.181 349.739 512.347 349.104 511.712 348.61C511.994 348.54 519.543 341.837 519.543 341.837L520.742 365.331C520.954 368.436 522.718 369.353 522.718 369.353Z" fill="black"/>
<path d="M546.847 345.012C545.577 343.883 544.871 342.755 544.801 340.92C544.589 337.322 547.199 332.666 552.702 330.62C557.006 329.067 560.534 330.337 560.745 334.641C560.886 337.181 558.911 339.65 557.288 341.414C557.288 341.414 558.417 341.696 559.052 342.12C560.957 343.248 562.086 344.73 562.227 347.199C562.368 350.797 559.828 356.653 553.62 358.84C548.822 360.604 544.659 358.911 544.448 354.396C544.307 351.221 546.776 347.482 548.61 345.929C548.54 346 547.693 345.647 546.847 345.012ZM549.81 353.126C549.951 355.313 551.644 356.018 553.337 355.383C555.101 354.748 556.442 352.914 556.371 351.15C556.301 349.104 554.889 348.328 552.35 347.411C550.445 349.528 549.739 351.644 549.81 353.126ZM555.454 335.77C555.383 333.936 554.043 333.301 552.773 333.794C551.221 334.359 550.304 335.77 550.374 337.393C550.445 339.015 552.067 340.003 553.62 340.426C555.031 338.521 555.524 336.969 555.454 335.77Z" fill="black"/>
<path d="M526.457 352.279C525.187 351.15 524.482 350.022 524.411 348.187C524.199 344.589 526.81 339.933 532.313 337.887C536.617 336.334 540.074 337.604 540.285 341.908C540.426 344.448 538.451 346.917 536.828 348.681C536.828 348.681 538.028 348.963 538.592 349.387C540.497 350.515 541.626 351.997 541.767 354.466C541.978 358.064 539.368 363.92 533.23 366.107C528.433 367.801 524.27 366.178 524.058 361.663C523.917 358.488 526.386 354.749 528.221 353.196C528.15 353.267 527.304 352.985 526.457 352.279ZM529.42 360.393C529.561 362.509 531.255 363.285 532.948 362.65C534.712 362.015 536.052 360.181 535.911 358.417C535.77 356.371 534.429 355.595 531.89 354.678C530.126 356.795 529.35 358.911 529.42 360.393ZM535.064 343.107C534.994 341.273 533.653 340.638 532.383 341.132C530.831 341.696 529.914 343.107 529.985 344.73C530.055 346.353 531.678 347.341 533.23 347.764C534.641 345.859 535.135 344.236 535.064 343.107Z" fill="black"/>
<path d="M565.261 347.129C566.742 348.328 568.929 348.893 571.258 348.117C573.727 347.27 575.35 344.659 575.138 341.626C574.997 338.804 573.374 337.886 571.328 338.663C569.564 339.298 568.506 341.061 568.083 341.767L565.472 340.991L565.12 326.669L575.702 322.859C577.184 322.294 578.313 321.73 578.948 321.166L579.089 327.233L569.564 330.62L569.706 336.052C570.623 335.135 572.175 334.077 573.868 333.442C579.018 331.607 581.488 335.064 581.699 338.874C581.982 344.73 577.537 350.163 572.245 352.067C569.494 353.055 567.236 352.844 565.543 352.561L565.261 347.129Z" fill="black"/>
<path d="M193.733 255.693L201.564 405.334C202.199 417.751 201 428.758 195.144 441.386C199.236 439.905 239.31 425.724 248.905 422.126C241.85 415.705 240.509 406.463 240.156 399.267L236.629 331.819C248.905 330.337 267.954 322.224 279.383 314.393C311.979 292.028 320.727 266.982 318.399 240.242C315.718 208.494 292.294 181.755 255.466 183.73C244.319 184.365 231.972 187.469 218.426 193.184C172.497 212.656 129.813 261.126 128.261 322.365C127.344 358.347 142.865 395.528 167.064 414.435C174.331 420.08 180.258 422.478 182.304 423.043C148.791 395.175 144.206 351.715 146.886 327.304C153.307 267.193 197.19 230.647 226.822 221.405C254.479 212.797 279.595 221.687 281.218 252.377C282.77 282.362 265.555 301.623 248.834 309.454C244.178 311.641 239.31 313.123 235.712 313.616L231.337 230.294C217.932 235.021 198.813 249.061 193.733 255.693Z" fill="black"/>
<path d="M488.359 288.147C488.853 313.969 506.279 331.748 530.69 324.764C546.917 320.178 562.439 303.81 568.153 291.393C568.577 299.365 566.178 305.856 563.991 310.089C566.742 309.101 592.212 299.788 596.163 298.377C592.353 293.58 591.436 286.383 591.083 279.258C590.942 276.859 590.307 265.923 589.742 253.718C589.813 241.089 593.905 233.963 597.574 231.564C601.736 228.883 607.733 229.871 609.074 235.233C609.92 238.549 608.862 242.994 605.123 245.604C617.187 248.85 629.604 240.383 628.405 224.721C627.347 210.61 615.141 204.896 605.264 207.929C597.715 210.258 590.871 217.101 588.402 226.767C588.12 219.923 587.837 215.337 587.837 215.337L558.558 226.061C561.31 228.178 563.709 232.411 564.132 239.325L565.755 270.509C561.945 285.537 547.975 302.328 536.193 305.009C524.834 307.549 517.285 302.963 513.617 294.285C521.518 295.132 527.727 294.356 534.006 291.816C546.282 286.948 556.724 272.908 555.101 255.905C553.479 239.255 539.156 231.353 522.718 236.574C499.577 244.123 487.936 265.359 488.359 288.147ZM522.224 251.531C530.055 249.978 532.313 257.528 532.383 262.466C532.454 269.38 529.702 276.788 522.153 280.88C518.626 282.785 514.604 283.138 511.288 282.997C508.96 263.172 516.086 252.659 522.224 251.531Z" fill="black"/>
<path d="M381.684 375.279C398.334 364.273 406.518 341.626 405.39 319.614C403.978 293.509 387.399 286.877 375.617 290.828C368.209 293.368 361.294 296.755 356.567 305.574L356.215 298.377L326.23 309.313C328.982 311.429 331.38 315.663 331.733 322.577C331.874 325.117 332.65 340.285 333.426 357.147C329.334 371.61 314.801 385.862 303.371 388.402C292.012 390.942 284.463 386.356 280.794 377.678C288.696 378.525 294.905 377.678 301.184 375.209C313.46 370.341 323.902 356.301 322.279 339.298C320.656 322.647 306.334 314.745 289.896 319.966C266.543 327.374 254.831 348.61 255.325 371.469C255.819 397.362 273.245 415 297.656 408.086C313.672 403.571 329.687 389.954 334.485 378.877C336.037 409.144 336.248 413.236 336.248 413.73C336.531 418.457 335.684 430.874 332.65 436.942L366.868 424.454C363.129 418.81 362.071 411.896 361.718 405.334L360.589 382.969C367.785 381.629 375.899 379.089 381.684 375.279ZM289.261 334.853C297.092 333.301 299.35 340.85 299.42 345.788C299.491 352.703 296.739 360.11 289.19 364.203C285.663 366.107 281.641 366.46 278.325 366.319C276.067 346.564 283.193 336.052 289.261 334.853ZM367.715 313.828C375.546 312.558 379.92 319.12 380.414 328.715C381.049 341.061 378.156 354.043 370.678 361.804C367.997 364.626 363.552 366.883 359.883 367.871L357.414 320.531C360.73 317.285 363.623 314.534 367.715 313.828Z" fill="black"/>
<path d="M460.491 346.705C477.071 335.699 485.607 314.745 484.267 292.098C482.644 264.583 467.123 258.374 454.494 262.537C445.322 265.57 440.666 271.85 436.08 278.905L435.586 269.804L405.601 280.739C408.353 282.856 410.61 287.089 410.963 294.003L415.761 385.58C416.184 393.834 414.773 403.359 412.304 408.509C412.304 408.509 442.359 397.574 446.31 396.163C442.571 390.518 441.512 383.604 441.16 377.043L439.96 354.396C447.156 353.055 454.776 350.515 460.491 346.705ZM447.58 285.325C455.411 284.055 459.15 291.675 459.644 301.27C460.279 313.617 457.88 325.54 449.837 333.583C447.086 336.334 442.923 338.239 439.255 339.298L436.785 292.098C439.748 288.994 443.488 286.031 447.58 285.325Z" fill="black"/>
<path d="M440.595 187.328L443.064 233.893C443.417 240.666 443.77 248.991 440.313 258.163C443.064 257.175 468.534 247.862 472.485 246.451C468.675 241.653 467.687 234.457 467.334 227.331C467.193 224.932 466.699 213.997 466.135 201.791C465.429 188.104 469.874 182.672 473.966 179.638C477.847 176.675 484.126 177.945 485.466 183.307C486.313 186.623 485.255 191.067 481.586 193.678C493.65 196.923 506.138 188.457 504.939 172.794C503.88 158.684 491.675 152.969 481.798 156.003C474.178 158.331 467.334 165.175 464.936 174.84C464.583 167.997 464.371 163.411 464.371 163.411L435.092 174.135C437.773 176.251 440.242 180.414 440.595 187.328Z" fill="black"/>
<path d="M324.819 188.457C325.313 196.288 328.911 267.334 329.123 270.58C329.546 277.564 330.816 287.371 324.537 299.365C330.252 297.39 369.902 283.491 380.202 279.258C408.988 267.546 431.494 239.466 429.448 196.994C427.261 152.475 396.782 138.788 363.129 149.936C354.098 152.899 322.42 164.752 315.365 167.08C320.515 170.396 324.113 176.322 324.819 188.457ZM376.816 168.138C391.209 171.525 396.5 188.88 397.135 205.883C397.84 225.215 391.491 248.497 376.463 259.574C371.948 262.89 365.598 265.782 361.012 267.193C360.801 263.736 356.426 180.837 356.003 173.429C361.365 170.113 369.549 166.445 376.816 168.138Z" fill="black"/>
<path d="M618.034 292.592C616.623 294.85 614.859 296.402 612.531 297.178C610.132 298.025 608.015 297.954 606.11 296.825C604.206 295.696 603.077 293.933 602.583 291.463C602.159 288.923 602.653 286.454 604.135 284.126C605.546 281.939 607.31 280.457 609.497 279.681C611.825 278.834 613.942 278.975 615.847 280.104C617.751 281.233 618.951 282.997 619.374 285.396C619.939 287.865 619.445 290.264 618.034 292.592ZM605.264 285.184C604.205 287.089 603.782 288.994 604.135 290.969C604.488 293.015 605.405 294.497 607.028 295.344C608.65 296.261 610.344 296.402 612.248 295.696C614.153 294.991 615.635 293.721 616.764 291.816C617.893 289.911 618.245 287.936 617.893 285.96C617.61 283.985 616.623 282.574 615 281.656C613.377 280.669 611.613 280.598 609.709 281.233C607.945 281.939 606.393 283.209 605.264 285.184ZM608.227 294.638L606.604 284.902C607.169 284.69 608.086 284.337 609.215 283.985C610.344 283.561 610.979 283.35 611.12 283.279C611.896 283.067 612.531 282.997 613.024 283.138C613.942 283.35 614.506 283.914 614.647 284.972C614.788 285.819 614.647 286.454 614.294 287.018C613.942 287.583 613.448 287.936 612.813 288.218C613.448 288.147 613.942 288.147 614.294 288.288C614.929 288.5 615.353 289.135 615.494 290.123L615.635 290.969C615.635 291.04 615.706 291.181 615.706 291.252C615.706 291.322 615.776 291.463 615.776 291.534L615.847 291.816L613.518 292.663C613.377 292.38 613.236 291.957 613.166 291.393C613.025 290.828 612.954 290.405 612.813 290.264C612.601 289.982 612.319 289.77 611.966 289.77C611.755 289.77 611.472 289.77 611.12 289.911L610.555 290.052L609.991 290.264L610.626 293.721L608.227 294.638ZM611.331 285.184C610.979 285.184 610.485 285.255 609.85 285.466L609.285 285.678L609.779 288.5L610.767 288.147C611.331 287.936 611.755 287.653 612.037 287.301C612.319 286.948 612.39 286.525 612.319 285.96C612.178 285.466 611.825 285.255 611.331 285.184Z" fill="black"/>
<path d="M664.739 206.942C651.334 172.865 626.077 146.055 584.38 129.617C573.374 125.172 556.865 120.798 546.564 120.092C593.34 135.402 628.687 163.058 643.574 201.015C678.003 288.5 591.294 397.433 449.767 444.279C378.65 467.844 307.252 471.301 249.399 457.755C255.466 462.058 270.071 465.445 281.077 467.561C336.954 478.356 403.979 472.359 470.933 450.206C612.39 403.359 699.169 294.356 664.739 206.942Z" fill="black"/>
</svg>
