<svg width="22" height="25" viewBox="0 0 22 25" fill="none" xmlns="http://www.w3.org/2000/svg">
<path d="M19.6429 0H2.35714C1.0558 0 0 1.0498 0 2.34375V22.6562C0 23.9502 1.0558 25 2.35714 25H19.6429C20.9442 25 22 23.9502 22 22.6562V2.34375C22 1.0498 20.9442 0 19.6429 0ZM11 23.4375C10.1308 23.4375 9.42857 22.7393 9.42857 21.875C9.42857 21.0107 10.1308 20.3125 11 20.3125C11.8692 20.3125 12.5714 21.0107 12.5714 21.875C12.5714 22.7393 11.8692 23.4375 11 23.4375ZM19.6429 18.1641C19.6429 18.4863 19.3777 18.75 19.0536 18.75H2.94643C2.62232 18.75 2.35714 18.4863 2.35714 18.1641V2.92969C2.35714 2.60742 2.62232 2.34375 2.94643 2.34375H19.0536C19.3777 2.34375 19.6429 2.60742 19.6429 2.92969V18.1641Z" fill="black"/>
</svg>
