<svg width="20" height="12" viewBox="0 0 20 12" fill="none" xmlns="http://www.w3.org/2000/svg">
<g clip-path="url(#clip0_794_2280)">
<path d="M20 10.2L20 1.8C20 0.80625 19.1602 -3.67107e-08 18.125 -8.19589e-08L1.875 -7.92269e-07C0.839844 -8.37517e-07 -3.52423e-08 0.806249 -7.86805e-08 1.8L-4.45856e-07 10.2C-4.89294e-07 11.1937 0.839843 12 1.875 12L18.125 12C19.1602 12 20 11.1938 20 10.2ZM1.25 6C1.25 5.33625 1.80859 4.8 2.5 4.8C3.19141 4.8 3.75 5.33625 3.75 6C3.75 6.66375 3.19141 7.2 2.5 7.2C1.80859 7.2 1.25 6.66375 1.25 6ZM5.46875 10.2C5.21094 10.2 5 9.9975 5 9.75L5 2.25C5 2.0025 5.21094 1.8 5.46875 1.8L17.6562 1.8C17.9141 1.8 18.125 2.0025 18.125 2.25L18.125 9.75C18.125 9.9975 17.9141 10.2 17.6562 10.2L5.46875 10.2Z" fill="black"/>
</g>
<defs>
<clipPath id="clip0_794_2280">
<rect width="12" height="20" fill="white" transform="translate(20) rotate(90)"/>
</clipPath>
</defs>
</svg>
