<svg width="800" height="600" viewBox="0 0 800 600" fill="none" xmlns="http://www.w3.org/2000/svg">
<path fill-rule="evenodd" clip-rule="evenodd" d="M733 366.482C733 362.17 736.448 359 740.524 359C744.561 359 748 362.17 748 366.482C748 370.823 744.561 374 740.524 374C736.448 374 733 370.823 733 366.482ZM740.524 372.749C743.876 372.749 746.519 370.09 746.519 366.482C746.519 362.93 743.876 360.25 740.524 360.25C737.14 360.25 734.495 362.93 734.495 366.482C734.495 370.089 737.14 372.749 740.524 372.749ZM738.961 370.823H737.666V362.17H740.919C742.935 362.17 743.931 362.93 743.931 364.635C743.931 366.18 742.968 366.856 741.721 367.013L744.145 370.823H742.699L740.448 367.07H738.961V370.823V370.823ZM740.505 365.964C741.604 365.964 742.581 365.884 742.581 364.556C742.581 363.484 741.619 363.282 740.719 363.282H738.961V365.964H740.505V365.964Z" fill="#0F5390"/>
<path fill-rule="evenodd" clip-rule="evenodd" d="M561.903 189.278C577.126 184.271 596.8 183.097 612.926 202.499C629.05 221.892 628.176 220.961 632.135 225.463C643.736 224.055 650.607 226.244 657.092 230.15C657.092 230.15 657.987 227.853 659.754 223.948C664.084 214.382 671.885 189.734 673.79 179.102C679.936 179.194 736.12 179.13 736.12 179.13C736.12 179.13 761.866 202.413 772 213.16C763.598 231.928 754.208 250.191 747.802 269.72C742.44 283.552 738.569 297.897 734.948 312.24C731.097 325.348 727.598 345.374 726.445 352.58C725.298 359.783 724.87 364.662 725.385 370.913L675.315 370.97C675.315 370.97 673.611 369.064 672.601 367.479C663.327 372.109 652.06 377.214 641.116 373.153C628.909 369.064 620.426 359.789 611.865 351.832C608.76 356.455 607.58 361.93 607.235 368.395L615.381 378.13C614.328 383.829 610.298 388.501 607.257 393.429C595.884 410.684 577.076 422.417 555.875 421.492C535.177 420.07 516.026 413.712 502.713 396.494C495.985 387.697 491.864 380.863 486.952 372.805L437.311 372.847C437.311 372.847 422.224 357.124 414.293 351.106C411.008 356.284 407.951 372.264 407.951 372.264C407.951 372.264 366.697 373.339 362.726 371.981C358.746 370.615 355.269 368.437 355.269 368.437C342.221 377.257 324.935 385.036 308.79 377.214C296.622 371.156 287.733 360.913 277.341 351.157C274.701 353.042 271.809 355.573 269.046 357.778C264.522 361.952 254.975 369.306 254.975 369.306L264.837 382.534C260.18 402.069 243.522 423.49 222.539 427.281C207.537 430.865 190.34 428.733 177.428 421.927C164.252 416.607 153.365 407.595 143.231 396.594C140.982 397.327 139.445 401.757 139.445 401.757L65.0967 401.623C65.0967 401.623 40.439 377.071 28 364.612C37.4621 338.42 47.9187 312.483 56.386 285.786C68.4591 251.136 87.3039 181.477 87.3039 181.477L174.8 181.463L191.871 197.712L233.038 197.748C233.038 197.748 257.716 221.587 272.145 234.657C276.92 231.315 282.259 227.732 288.507 226.047C297.023 222.646 307.474 221.771 316.998 223.677C326.525 225.577 337.04 228.776 348.232 243.228C348.232 243.228 351.325 235.419 352.449 232.681C359.326 213.16 362.775 203.985 367.887 184.897C388.678 184.833 428.228 184.974 428.228 184.974L455.118 207.888C455.118 207.888 459.441 199.69 461.014 195.586C465.338 186.205 469.268 171.042 469.268 171.042L542.113 171L561.903 189.278Z" fill="black" stroke="white" stroke-width="12.7" stroke-miterlimit="99" stroke-linejoin="bevel"/>
<path fill-rule="evenodd" clip-rule="evenodd" d="M536.379 184L479.289 184.01C479.289 184.01 476.114 192.329 475.591 194.552C458.742 235.927 438.151 275.306 413.837 313.416C410.533 320.055 403.425 332.361 403.425 332.361L449.984 332.321C450.77 328.124 452.724 322.398 454.261 318.206C457.311 311.811 459.124 304.74 463.176 298.839L485.68 298.789C486.479 320.303 487.778 342.963 496.599 361.583C503.219 375.48 516.871 386.229 533.119 384.887C543.111 384.233 551.644 379.609 559.431 373.745C566.978 367.608 576.086 356.091 578.679 344.994C573.212 348.217 570.663 348.634 565.644 350.314C553.388 351.936 542.698 346.412 536.291 336.464C535.305 334.725 533.883 332.027 533.883 332.027C533.883 332.027 558.257 331.905 569.245 331.997C569.245 331.997 583.307 271.889 592.3 243.535C592.56 241.311 594.082 236.634 594.082 236.634L553.238 236.526C553.238 236.526 542.776 280.407 536.604 300.87C534.619 307.546 531.917 316.699 528.764 323.124C528.764 323.124 526.954 319.813 526.359 317.666C521.048 303.654 518.177 294.035 516.796 280.433C515.928 271.145 516.523 262.388 517.109 254.607C520.578 229.663 523.703 204.902 536.379 184V184ZM728 192.03L682.979 192.069L682.421 194.12C676.779 210.875 671.152 226.178 664.748 243.643C664.235 245.371 662.882 247.922 662.882 247.922C655.458 238.957 640.847 234.545 628.839 236.418C605.574 240.919 590.919 264.116 584.697 285.724C581.341 297.804 581.043 312.417 588.875 322.093C596.696 331.771 613.48 335.154 626.763 330.574C631.76 329.87 640.061 323.516 640.061 323.516C640.061 323.516 639.767 329.68 640.991 332.41L680.924 332.321L682.039 323.143C689.921 279.464 704.021 238.513 724.352 199.637C725.37 197.67 728 192.029 728 192.029V192.03ZM97.2746 194.062C97.2746 194.062 72.2038 282.306 55.247 329.337C52.6612 338.713 46 356.705 46 356.705L100.22 356.656C100.22 356.656 103.082 321.257 111.346 307.977C111.6 307.475 111.966 308.91 112.285 310.058C119.91 329.059 125.265 348.241 136.856 365.146C144.248 376.832 156.932 382.879 170.419 382.992C192.405 382.936 212.723 373.471 223.386 353.789C224.224 351.563 224.922 349.846 224.434 348.361C218.466 351.706 209.126 356.136 200.156 353.838C175.673 347.622 158.569 320.758 145.936 299.732C143.373 295.211 142.033 290.221 140.848 285.842C160.822 259.319 184.684 241.608 209.853 220.074C214.102 216.29 217.926 212.923 220.461 209.404C203.907 209.14 171.632 209.483 171.632 209.483C162.288 224.621 152.098 234.199 136.797 247.235C134.666 248.98 131.707 250.126 129.37 250.642C132.031 232.122 139.207 215.14 148.842 198.911C150.385 196.529 150.858 194.218 150.858 194.218L97.2745 194.061L97.2746 194.062ZM577.32 197.173C563.596 197.173 553.263 203.718 552.474 211.721C551.534 221.225 563.596 226.268 577.32 226.268C591.041 226.268 603.379 219.826 602.154 211.721C600.958 203.766 591.041 197.173 577.32 197.173V197.173ZM378.485 197.792C365.186 233.274 351.49 273.573 336.446 308.292C333.378 316.669 329.196 324.305 324.949 332.302C340.249 332.302 354.599 332.235 368.972 332.292C377.1 288.362 396.677 249.227 416.254 210.091C418.286 206.402 420.043 201.991 421.862 197.792H378.485V197.792ZM218.065 233.611C199.989 233.799 185.048 244.827 174.188 259.182C165.09 271.708 159.318 284.827 160.635 303.806C162.03 315.185 166.925 326.605 178.111 332.39C191.543 338.686 211.042 337.371 222.859 328.326C234.662 321.752 240.509 310.924 248.34 300.861L248.584 301.352C249.748 310.755 250.903 320.401 257.587 327.629C264.024 334.608 272.744 336.91 281.991 336.248C305.228 335.71 326.376 316.606 335.546 296.915C342.923 281.404 345.869 258.94 332.757 244.978C323.084 236.494 309.635 232.67 296.366 236.016C278.588 240.804 264.7 254.98 256.168 269.852L255.346 270.765C254.906 263.35 252.219 256.89 249.025 250.436C244.608 241.987 235.907 236.729 227.184 234.425C224.063 233.843 221.022 233.58 218.065 233.611V233.611ZM487.374 238.47C487.374 238.47 485.95 251.133 485.68 256.551C485.402 261.898 484.857 276.311 484.857 276.311H470.378L481.325 252.438L487.374 238.47V238.47ZM406.215 256.551C403.644 264.189 395.916 277.655 394.855 285.557L420.227 285.774L420.343 284.301C423.672 275.183 432.067 256.728 432.067 256.728L406.215 256.551ZM308.548 257.444C310.568 257.443 312.459 257.87 314.645 259.898C317.824 262.849 318.262 266.607 317.61 271.687C316.965 276.762 310.619 291.021 299.849 293.892C295.849 294.594 292.112 294.817 288.381 291.565C282.958 286.84 286.009 277.706 288.557 272.041C291.362 265.387 298.414 259.021 305.672 257.601C306.687 257.531 307.63 257.445 308.548 257.444ZM219.258 259.29C221.754 259.312 224.159 260.023 226.206 261.616C233.478 267.273 225.241 286.514 223.123 289.268C220.603 292.556 217.141 295.621 212.653 296.836C207.153 297.783 201.659 296.003 198.954 291.28C195.01 284.505 198.35 275.711 202.398 269.322C205.865 263.668 212.881 259.231 219.258 259.29ZM642.694 260.193C646.849 260.257 650.944 262.079 652.811 265.788C655.798 271.732 652.263 287.746 647.585 292.606C642.734 297.622 637.389 300.251 632.038 299.232C626.69 298.212 622.826 294.949 622.124 290.004C620.725 278.864 625.578 267.288 635.617 261.94C637.69 260.75 640.198 260.154 642.694 260.193V260.193Z" fill="white"/>
</svg>
