<svg width="800" height="600" viewBox="0 0 800 600" fill="none" xmlns="http://www.w3.org/2000/svg">
<path d="M469.038 312.48C455.307 312.321 445.076 315.917 437.286 323.58C429.883 330.862 426.458 338.911 424.127 354.46C419.673 384.172 427.384 414.707 441.894 424.684C444 426.133 447.767 427.877 450.258 428.571C457.969 430.719 470.329 428.715 480.785 423.62C488.95 419.641 497.768 410.673 501.748 402.297C503.464 398.687 505.063 394.066 505.291 392.048L505.691 388.401L496.527 387.842C491.479 387.533 485.185 387.256 482.543 387.256H477.748L476.682 391.223C476.038 393.63 474.452 396.327 472.634 398.144C469.994 400.782 469.292 401.066 466.48 400.62C460.381 399.651 456.636 392.301 458.143 384.275L458.702 381.267L482.117 381.852L505.504 382.438V365.907C505.496 340.186 502.724 326.403 496.208 319.853C491.879 315.502 483.899 313.117 471.834 312.559C470.888 312.516 469.953 312.49 469.038 312.48ZM467.066 339.552C472.323 339.552 475.398 344.298 476.283 353.768L476.789 359.145H467.706H458.622V355.791C458.622 350.654 460.268 344.145 462.165 341.735C463.449 340.104 464.656 339.552 467.066 339.552Z" fill="black"/>
<path d="M513.61 425.731C511.734 425.393 509.794 424.864 509.298 424.557C508.666 424.166 508.717 420.852 509.467 413.513C514.581 363.464 512.361 325.756 503.241 307.77C502.083 305.486 501.257 303.537 501.406 303.439C503.457 302.086 534.052 288.58 534.362 288.89C535.089 289.617 540.279 319.017 541.427 328.916L542.514 338.287L544.353 332.413C545.924 327.392 546.278 323.557 546.787 306.005C547.304 288.191 547.574 285.324 548.823 284.354C551.787 282.053 568.804 273.972 570.685 273.972C572.23 273.972 573.042 274.903 574.549 278.403C576.438 282.793 584.515 306.629 586.613 314.009L587.702 317.842L588.29 310.601C589.1 300.622 589.115 276.835 588.313 272.694C587.516 268.574 588.445 264.558 590.656 262.558C591.556 261.744 594.855 260.543 597.988 259.888C601.325 259.19 606.62 257.097 610.774 254.834C617.993 250.902 620.979 250.13 621.605 252.037C622.259 254.028 620.408 422.616 619.725 423.347C618.442 424.719 608.224 426.393 600.98 426.419C592.765 426.447 588.817 425.573 584.731 422.821C580.031 419.656 578.755 416.365 576.157 400.712C572.625 379.427 568.581 365.972 565.715 365.972C563.877 365.972 561.683 372.484 554.952 397.913C551.686 410.25 548.577 421.302 548.043 422.474C547.509 423.646 546.255 424.859 545.257 425.17C542.581 426.003 517.573 426.447 513.61 425.731Z" fill="black"/>
<path d="M364.645 330.182C351.857 330.2 339.214 330.898 337.342 332.125C333.802 334.446 333.624 337.022 336.596 343.146C339.907 349.969 340.708 358.579 341.524 396.52L342.11 424.099L365.631 423.646C390.76 423.151 398.507 422.169 405.72 418.588C413.926 414.515 416.909 405.906 417.467 384.701C418.022 363.628 415.23 346.22 410.355 340.431C407.139 336.611 398.775 332.967 389.738 331.433C384.621 330.565 374.592 330.168 364.645 330.182ZM375.647 355.019C377.689 354.978 378.721 355.428 379.988 356.776C382.936 359.912 384.485 367.639 384.464 379.137C384.441 391.429 383.099 395.488 378.284 397.771C376.63 398.556 374.262 399.182 373.036 399.182H370.799L371.038 377.247L371.251 355.312L374.688 355.072C375.024 355.047 375.355 355.025 375.647 355.019Z" fill="black"/>
<path d="M177.739 358.518C178.006 323.028 178.455 267.061 178.737 234.148L179.249 174.305H198.84H218.431L217.858 180.907C217.144 189.14 218.689 219.581 220.397 230.916C221.734 239.794 224.847 252.436 225.849 253.054C226.17 253.253 227.107 247.02 227.93 239.203C229.834 221.122 234.068 191.241 235.844 183.356C238.093 173.368 235.845 174.21 258.563 174.842C269.444 175.145 278.448 175.472 278.57 175.568C278.692 175.664 278.193 177.432 277.46 179.496C276.727 181.561 275.402 187.477 274.514 192.643C267.057 236.061 277.705 294.927 304.093 356.155C310.02 369.908 324.437 399.061 331.486 411.546L335.814 419.212L315.195 419.441C303.854 419.567 294.062 419.473 293.434 419.232C291.046 418.316 274.44 381.418 266.398 359.157C263.943 352.363 261.727 346.23 261.472 345.527C260.661 343.292 260.841 352.958 261.769 361.533C264.337 385.238 268.947 404.361 275.932 420.277C276.297 421.109 272.668 421.342 259.341 421.342H242.282L237.871 410.907C230.13 392.596 222.38 372.772 217.306 358.305C214.595 350.575 212.364 345.208 212.348 346.379C212.286 350.979 214.01 379.687 214.88 388.546C216.084 400.812 217.931 411.637 219.898 417.953L221.484 423.046H199.368H177.252L177.739 358.518Z" fill="black"/>
<path d="M309.053 175.438C302.63 175.696 293.676 182.259 288.675 190.718C282.382 201.362 280.327 215.269 280.178 248.404C280.082 269.778 280.24 272.608 281.989 280.562C286.994 303.315 298.094 323.096 308.813 328.399C315.578 331.745 321.223 330.383 327.087 324.006C335.974 314.339 341.181 297.11 342.669 272.283C344.339 244.432 340.069 210.652 332.893 195.004C328.219 184.809 319.598 177.193 310.944 175.571C310.341 175.458 309.717 175.411 309.053 175.438ZM311.317 211.375C313.542 211.276 316.194 219.687 318.563 235.147C320.388 247.066 320.677 275.398 319.015 280.083C317.186 285.238 315.907 285.69 312.596 282.372C306.964 276.727 303.634 261.479 304.711 246.275C305.391 236.671 307.557 220.946 308.946 215.502C309.644 212.77 310.446 211.414 311.317 211.375Z" fill="black"/>
<path d="M365.292 315.798C355.565 311.287 350.377 298.569 350.374 279.221C350.372 268.681 348.418 242.795 345.223 210.986C343.837 197.193 342.704 185.203 342.704 184.342C342.704 182.886 343.528 182.792 354.424 183.012L366.145 183.25L367.689 189.212C368.864 193.75 369.422 200.777 370.021 218.601C370.874 244.002 371.908 257.947 373.874 270.564C376.056 284.578 379.166 290.897 380.529 284.087C382.09 276.288 380.487 244.606 376.531 205.05C375.488 194.621 374.868 185.945 375.153 185.769C375.438 185.593 380.276 185.681 385.904 185.963L396.137 186.478L397.164 203.071C401.939 280.235 399.326 309.319 387.061 315.5C382.019 318.04 370.47 318.199 365.292 315.798Z" fill="black"/>
<path d="M403.528 304.425C404.212 301.886 404.503 284.468 404.503 246.074V191.342L409.711 191.342C412.576 191.342 416.603 191.574 418.661 191.857L422.403 192.372L430.074 205.253L437.746 218.134L437.982 206.089L438.218 194.043L446.237 197.553L454.255 201.062L454.726 207.063C454.986 210.364 455.776 230.123 456.483 250.972C457.189 271.821 457.99 292.233 458.263 296.333L458.758 303.787H448.536H438.314L434.475 292.5L430.635 281.212L430.568 290.677C430.531 295.882 430.257 301.92 429.959 304.094L429.417 308.046H415.985H402.553L403.528 304.425Z" fill="black"/>
<path d="M464.331 260.129C463.462 201.169 462.956 198.455 451.772 192.834C448.277 191.078 443.116 189.061 440.303 188.352C433.855 186.728 418.907 184.721 408.257 184.051L400.078 183.536L400.42 179.134C400.607 176.712 400.915 173.964 401.102 173.027C401.441 171.333 401.73 171.329 454.969 172.308C484.408 172.849 514.537 173.328 521.92 173.372L535.346 173.453V179.222V184.99L524.478 185.065C503.753 185.207 491.692 190.929 487.168 202.767C485.682 206.658 485.692 208.128 487.495 248.259C488.52 271.069 489.545 291.169 489.774 292.925L490.189 296.12H477.525H464.862L464.331 260.129Z" fill="black"/>
<path d="M517.571 188.056C510.99 188.091 504.783 189.67 501.029 192.342C496.057 195.88 492.718 205.987 492.718 217.498V223.967L498.472 223.408C501.636 223.109 505.25 222.879 506.49 222.875C508.715 222.869 508.738 222.759 509.047 215.954C509.344 209.422 509.509 208.931 512.137 206.584C513.663 205.221 515.474 204.108 516.159 204.108C520.006 204.108 521.705 215.035 518.53 219.335C517.616 220.573 512.623 224.254 507.422 227.534C502.221 230.814 497.005 234.417 495.835 235.52C492.978 238.213 491.528 244.593 491.653 253.941C491.819 266.415 496.545 278.095 503.213 282.478C505.497 283.98 506.97 284.22 512.323 283.996C519.821 283.682 525.325 281.445 535.605 274.572L542.237 270.127L541.731 236.478C541.451 217.972 541.029 201.597 540.799 200.088C539.79 193.468 531.911 188.854 520.395 188.136C519.445 188.077 518.511 188.051 517.571 188.056ZM519.409 239.513C519.911 239.523 519.992 240.765 519.968 244.278C519.948 247.264 519.277 251.576 518.477 253.888C517.677 256.2 516.609 258.227 516.106 258.387C514.67 258.842 512.323 255.743 512.323 253.382C512.323 250.956 516.841 241.464 518.743 239.886C519.013 239.661 519.242 239.51 519.409 239.513Z" fill="black"/>
<path d="M547.945 237.825C547.843 220.224 547.747 203.236 547.732 200.074L547.705 194.324L558.574 194.085L569.442 193.847L569.335 212.4C569.277 222.604 568.989 237.813 568.696 246.198C568.171 261.207 568.13 261.467 566.022 263.037C564.196 264.396 557.012 267.195 550.05 269.259L548.132 269.827L547.945 237.825Z" fill="black"/>
<path d="M573.415 250.333C573.582 245.765 574.109 226.715 574.587 208.001C575.064 189.286 575.572 173.857 575.715 173.715C575.858 173.572 579.442 173.209 583.68 172.908L591.385 172.362L597.248 180.693L603.111 189.025L603.538 181.026L603.964 173.027L611.848 172.782L619.733 172.537L619.731 183.43C619.731 189.422 619.475 204.467 619.164 216.865C618.612 238.851 618.55 239.454 616.647 241.355C614.99 243.012 613.808 243.305 608.788 243.305H602.879L598.307 232.965L593.735 222.626L593.081 236.16C592.721 243.604 592.065 250.541 591.623 251.576C590.626 253.913 585.781 256.424 579.842 257.682C572.69 259.196 573.074 259.635 573.415 250.333Z" fill="black"/>
<path d="M548.971 186.87C544.972 184.844 542.426 181.367 541.305 176.403L540.64 173.453H555.893C564.282 173.453 571.146 173.658 571.146 173.907C571.146 175.359 566.673 182.748 564.62 184.686C559.86 189.18 554.899 189.873 548.971 186.87Z" fill="black"/>
</svg>
