<svg width="800" height="600" viewBox="0 0 800 600" fill="none" xmlns="http://www.w3.org/2000/svg">
<path fill-rule="evenodd" clip-rule="evenodd" d="M439.973 339.054C432.17 331.249 362.079 270.863 356.379 266.672C354.639 265.176 354.254 264.388 354.239 263.988C354.224 263.573 354.667 263.108 355.395 262.382C355.692 262.085 387.27 227.227 396.722 203.321C399.901 195.281 406.245 175.131 396.511 161.718C390.169 152.979 378.395 149.072 361.513 150.105C341.513 151.33 306.364 172.369 285.362 184.94C278.898 188.81 271.228 193.059 271.228 193.059C269.263 194.779 263.783 195.487 262.883 194.441C260.07 191.17 258.494 189.536 258.494 189.536C258.494 189.536 257.276 191.79 257.276 196.338L256.723 203.338C256.161 210.125 255.524 217.818 255.928 222.241C256.133 224.506 257.088 230.045 261.482 232.546C264.702 234.377 268.91 234.074 273.99 231.644C281.165 228.213 293.697 220.238 304.752 213.201C312.654 208.173 319.478 203.829 322.567 202.285C334.106 196.516 341.705 196.245 345.801 201.457C351.617 208.861 347.183 219.207 345.685 222.203C344.856 223.864 322.431 264.651 321.118 267.606C320.621 268.842 319.876 269.458 319.566 269.569C319.512 269.447 319.42 269.161 319.42 268.571L319.394 264.918C319.312 255.765 319.122 234.328 320.442 229.922L320.905 228.381L295.309 231.224C285.218 231.829 280.456 236.578 278.879 247.609L260.5 385.458L322.674 367.045C322.674 367.045 319.954 293.758 319.954 285.115C319.954 283.669 320.223 283.232 320.293 283.144C320.492 283.154 321.2 283.449 322.362 284.756C322.498 284.909 322.881 285.322 323.516 286.006C356.56 321.661 378.729 349.976 384.342 363.696L384.816 364.854L385.884 364.198C394.102 359.163 429.942 343.761 439.536 340.829L441.232 340.311L439.973 339.054V339.054Z" fill="black"/>
<path fill-rule="evenodd" clip-rule="evenodd" d="M535.77 164.575C533.552 164.187 532.031 163.341 531.124 161.988C529.099 158.978 530.244 153.681 531.357 148.56C531.733 146.829 532.119 145.038 532.371 143.372C533.021 139.091 531.368 134.723 527.837 131.383C523.569 127.347 517.408 125.694 511.357 126.961C499.673 129.407 494.742 127.556 491.137 126.206C486.278 124.383 473.892 124.761 462.74 131.357C442.211 143.501 420.017 183.664 412.722 196.861C402.236 215.836 371.137 279.751 411.212 305.532C432.277 319.085 450.494 324.306 465.362 321.046C480.916 317.638 490.105 305.655 495.665 296.939C502.711 285.888 530.197 212.081 529.041 211.541C527.797 210.96 526.817 212.54 526.16 213.605C525.543 214.494 524.563 215.986 523.205 218.05C515.486 229.79 494.994 260.97 477.248 276.895C469.628 283.731 463.332 286.43 458.528 284.917C452.995 283.174 450.587 276.145 449.646 272.11C442.355 242.428 472.171 160.905 489.64 152.168C492.174 150.902 494.309 150.648 495.506 151.47C496.688 152.286 496.78 154.045 496.643 155.379C496.516 156.673 496.399 157.528 496.3 158.285C495.982 160.649 495.775 162.212 495.569 173.344C495.454 179.819 497.086 184.282 500.433 186.608C503.598 188.808 508.17 188.911 513.303 186.893C521.244 183.774 532.851 172.176 536.499 166.178L537.313 164.844L535.77 164.575V164.575ZM528.487 332.917C525 333.125 519.283 333.578 511.868 334.565C498.849 336.296 478.032 340.027 452.767 347.97C424.416 356.883 396.377 369.176 369.423 384.505C335.751 403.654 298.37 432.093 268.714 460.853C268.714 460.853 288.337 450.441 298.299 445.46C300.402 444.41 301.422 444.692 302.496 446.625L303.002 447.537L322.067 437.444C323.923 436.516 323.998 436.478 326.796 441.061L327.332 441.937L333.848 438.275C351.445 428.354 378.038 413.36 409.482 401.708C447.003 387.805 482.298 382.184 514.384 385.002L515.333 385.086L515.523 384.151C517.609 373.703 527 344.495 534.794 334.766C534.957 334.718 535.104 334.627 535.221 334.503C535.338 334.38 535.421 334.228 535.46 334.062L535.675 333.281L534.982 332.863C533.849 332.602 531.434 332.74 528.487 332.917V332.917ZM517.131 290.602C513.687 290.602 510.89 293.312 510.89 296.62C510.89 299.998 513.687 302.706 517.131 302.706C520.564 302.706 523.339 299.998 523.339 296.62C523.339 293.312 520.564 290.602 517.131 290.602ZM517.131 301.524C514.322 301.524 512.076 299.382 512.076 296.62C512.076 293.945 514.322 291.784 517.131 291.784C519.91 291.784 522.157 293.945 522.157 296.62C522.157 299.382 519.91 301.524 517.131 301.524Z" fill="black"/>
<path fill-rule="evenodd" clip-rule="evenodd" d="M520.323 295.043C520.323 294.477 520.068 293.878 519.554 293.587C519.022 293.295 518.437 293.262 517.858 293.262H514.823V300.034H515.848V296.913H517.066L519.057 300.034H520.239L518.131 296.913C519.363 296.877 520.323 296.381 520.323 295.043V295.043ZM516.982 296.072H515.848V294.031H517.651C518.527 294.031 519.296 294.151 519.296 295.027C519.294 296.242 517.959 296.072 516.982 296.072ZM540.126 429.656C537.982 432.069 534.228 434.751 531.277 434.751C526.718 434.484 529.934 421.879 531.277 417.053C532.616 412.225 529.133 411.153 526.718 412.225C518.405 405.791 510.361 420.271 508.217 426.707C499.098 444.138 492.128 447.356 489.177 442.795C488.519 441.041 487.503 440.001 487.593 434.982C496.479 429.015 504.73 412.559 504.73 403.374C504.73 393.72 496.954 397.743 494.003 400.156C487.569 406.056 482.877 427.374 482.606 431.934C480.862 432.874 477.646 433.275 475.235 433.275C474.428 431.934 472.284 430.862 470.676 432.739C463.435 427.106 455.792 441.454 453.378 448.159C435.413 475.243 426.564 471.086 423.882 464.383C419.323 447.221 432.06 427.243 432.998 425.902C433.935 424.559 436.886 420.002 440.506 421.074C444.127 422.146 442.118 432.472 441.447 436.897C441.176 440.115 445.201 440.651 446.006 437.166C451.635 410.617 439.837 413.165 435.278 416.651C423.211 425.904 417.578 449.501 417.042 456.206C416.506 462.909 418.651 473.637 428.573 474.709C438.496 475.781 447.881 463.044 452.707 457.144C452.171 461.568 455.792 465.86 461.02 465.86C473.087 464.788 476.038 441.725 475.771 437.168C477.379 437.436 480.326 437.3 482.472 436.764C482.472 443.469 485.423 450.441 491.857 450.441C498.294 450.441 501.512 444.944 504.73 439.58C509.958 453.123 520.686 439.044 523.231 435.559C528.328 445.211 541.467 436.631 543.611 433.145C545.759 429.656 541.736 427.243 540.126 429.656V429.656ZM495.88 405.253C499.098 401.766 500.706 404.717 499.634 409.007C497.493 417.102 492.604 424.557 488.155 428.38C489.408 419.869 492.972 408.402 495.88 405.253V405.253ZM460.887 459.555C454.933 459.555 463.164 434.616 468.931 435.957C473.219 437.298 466.92 459.555 460.887 459.555ZM512.907 436.493C509.555 435.287 516.795 415.578 522.027 417.32C525.108 418.394 518.721 438.587 512.907 436.493Z" fill="black"/>
</svg>
